<svg xmlns="http://www.w3.org/2000/svg" width="1000" height="1000" viewBox="0 0 1000 1000">
<rect x="0" y="0" width="125" height="125" fill="#f0d9b5" fill-opacity="0.1" />
<rect x="125" y="0" width="125" height="125" fill="#b58863" fill-opacity="0.1" />
<rect x="250" y="0" width="125" height="125" fill="#f0d9b5" fill-opacity="0.1" />
<rect x="375" y="0" width="125" height="125" fill="#b58863" fill-opacity="0.1" />
<rect x="500" y="0" width="125" height="125" fill="#f0d9b5" fill-opacity="0.1" />
<rect x="625" y="0" width="125" height="125" fill="#b58863" fill-opacity="0.1" />
<rect x="750" y="0" width="125" height="125" fill="#f0d9b5" fill-opacity="0.1" />
<rect x="875" y="0" width="125" height="125" fill="#b58863" fill-opacity="0.1" />
<rect x="0" y="125" width="125" height="125" fill="#b58863" fill-opacity="0.1" />
<rect x="125" y="125" width="125" height="125" fill="#f0d9b5" fill-opacity="0.1" />
<rect x="250" y="125" width="125" height="125" fill="#b58863" fill-opacity="0.1" />
<rect x="375" y="125" width="125" height="125" fill="#f0d9b5" fill-opacity="0.1" />
<rect x="500" y="125" width="125" height="125" fill="#b58863" fill-opacity="0.1" />
<rect x="625" y="125" width="125" height="125" fill="#f0d9b5" fill-opacity="0.1" />
<rect x="750" y="125" width="125" height="125" fill="#b58863" fill-opacity="0.1" />
<rect x="875" y="125" width="125" height="125" fill="#f0d9b5" fill-opacity="0.1" />
<rect x="0" y="250" width="125" height="125" fill="#f0d9b5" fill-opacity="0.1" />
<rect x="125" y="250" width="125" height="125" fill="#b58863" fill-opacity="0.1" />
<rect x="250" y="250" width="125" height="125" fill="#f0d9b5" fill-opacity="0.1" />
<rect x="375" y="250" width="125" height="125" fill="#b58863" fill-opacity="0.1" />
<rect x="500" y="250" width="125" height="125" fill="#f0d9b5" fill-opacity="0.1" />
<rect x="625" y="250" width="125" height="125" fill="#b58863" fill-opacity="0.1" />
<rect x="750" y="250" width="125" height="125" fill="#f0d9b5" fill-opacity="0.1" />
<rect x="875" y="250" width="125" height="125" fill="#b58863" fill-opacity="0.1" />
<rect x="0" y="375" width="125" height="125" fill="#b58863" fill-opacity="0.1" />
<rect x="125" y="375" width="125" height="125" fill="#f0d9b5" fill-opacity="0.1" />
<rect x="250" y="375" width="125" height="125" fill="#b58863" fill-opacity="0.1" />
<rect x="375" y="375" width="125" height="125" fill="#f0d9b5" fill-opacity="0.1" />
<rect x="500" y="375" width="125" height="125" fill="#b58863" fill-opacity="0.1" />
<rect x="625" y="375" width="125" height="125" fill="#f0d9b5" fill-opacity="0.1" />
<rect x="750" y="375" width="125" height="125" fill="#b58863" fill-opacity="0.1" />
<rect x="875" y="375" width="125" height="125" fill="#f0d9b5" fill-opacity="0.1" />
<rect x="0" y="500" width="125" height="125" fill="#f0d9b5" fill-opacity="0.1" />
<rect x="125" y="500" width="125" height="125" fill="#b58863" fill-opacity="0.1" />
<rect x="250" y="500" width="125" height="125" fill="#f0d9b5" fill-opacity="0.1" />
<rect x="375" y="500" width="125" height="125" fill="#b58863" fill-opacity="0.1" />
<rect x="500" y="500" width="125" height="125" fill="#f0d9b5" fill-opacity="0.1" />
<rect x="625" y="500" width="125" height="125" fill="#b58863" fill-opacity="0.1" />
<rect x="750" y="500" width="125" height="125" fill="#f0d9b5" fill-opacity="0.1" />
<rect x="875" y="500" width="125" height="125" fill="#b58863" fill-opacity="0.1" />
<rect x="0" y="625" width="125" height="125" fill="#b58863" fill-opacity="0.1" />
<rect x="125" y="625" width="125" height="125" fill="#f0d9b5" fill-opacity="0.1" />
<rect x="250" y="625" width="125" height="125" fill="#b58863" fill-opacity="0.1" />
<rect x="375" y="625" width="125" height="125" fill="#f0d9b5" fill-opacity="0.1" />
<rect x="500" y="625" width="125" height="125" fill="#b58863" fill-opacity="0.1" />
<rect x="625" y="625" width="125" height="125" fill="#f0d9b5" fill-opacity="0.1" />
<rect x="750" y="625" width="125" height="125" fill="#b58863" fill-opacity="0.1" />
<rect x="875" y="625" width="125" height="125" fill="#f0d9b5" fill-opacity="0.1" />
<rect x="0" y="750" width="125" height="125" fill="#f0d9b5" fill-opacity="0.1" />
<rect x="125" y="750" width="125" height="125" fill="#b58863" fill-opacity="0.1" />
<rect x="250" y="750" width="125" height="125" fill="#f0d9b5" fill-opacity="0.1" />
<rect x="375" y="750" width="125" height="125" fill="#b58863" fill-opacity="0.1" />
<rect x="500" y="750" width="125" height="125" fill="#f0d9b5" fill-opacity="0.1" />
<rect x="625" y="750" width="125" height="125" fill="#b58863" fill-opacity="0.1" />
<rect x="750" y="750" width="125" height="125" fill="#f0d9b5" fill-opacity="0.1" />
<rect x="875" y="750" width="125" height="125" fill="#b58863" fill-opacity="0.1" />
<rect x="0" y="875" width="125" height="125" fill="#b58863" fill-opacity="0.1" />
<rect x="125" y="875" width="125" height="125" fill="#f0d9b5" fill-opacity="0.1" />
<rect x="250" y="875" width="125" height="125" fill="#b58863" fill-opacity="0.1" />
<rect x="375" y="875" width="125" height="125" fill="#f0d9b5" fill-opacity="0.1" />
<rect x="500" y="875" width="125" height="125" fill="#b58863" fill-opacity="0.1" />
<rect x="625" y="875" width="125" height="125" fill="#f0d9b5" fill-opacity="0.1" />
<rect x="750" y="875" width="125" height="125" fill="#b58863" fill-opacity="0.1" />
<rect x="875" y="875" width="125" height="125" fill="#f0d9b5" fill-opacity="0.1" />
</svg>